<?xml version="1.0" encoding="UTF-8"?>
<svg xmlns="http://www.w3.org/2000/svg" xmlns:xlink="http://www.w3.org/1999/xlink" width="1440pt" height="809.999993pt" viewBox="0 0 1440 809.999993" version="1.2">
<defs>
<clipPath id="clip1">
  <path d="M 668.660156 221.792969 L 828.410156 221.792969 L 828.410156 545.792969 L 668.660156 545.792969 Z M 668.660156 221.792969 "/>
</clipPath>
</defs>
<g id="surface1">
<path style=" stroke:none;fill-rule:nonzero;fill:rgb(19.999695%,19.999695%,19.999695%);fill-opacity:1;" d="M 808.53125 223.6875 L 807.324219 223.6875 L 807.21875 223.683594 L 689.746094 223.683594 L 689.628906 223.6875 L 688.433594 223.6875 C 676.023438 223.6875 670.359375 233.601562 670.359375 245.828125 L 670.359375 521.757812 C 670.359375 533.984375 676.023438 543.902344 688.433594 543.902344 L 689.628906 543.902344 L 689.746094 543.90625 L 807.21875 543.90625 L 807.324219 543.902344 L 808.53125 543.902344 C 820.941406 543.902344 826.601562 533.984375 826.601562 521.757812 L 826.601562 245.828125 C 826.601562 233.601562 820.941406 223.6875 808.53125 223.6875 "/>
<g clip-path="url(#clip1)" clip-rule="nonzero">
<path style=" stroke:none;fill-rule:nonzero;fill:rgb(22.349548%,20.779419%,21.179199%);fill-opacity:1;" d="M 808.53125 223.6875 L 808.53125 221.949219 L 807.367188 221.949219 L 807.296875 221.945312 L 801.351562 221.945312 L 695.609375 221.941406 L 689.703125 221.945312 L 689.585938 221.949219 L 688.433594 221.949219 C 685.097656 221.945312 682.140625 222.621094 679.605469 223.867188 C 675.792969 225.738281 673.007812 228.894531 671.226562 232.714844 C 669.445312 236.542969 668.621094 241.042969 668.621094 245.828125 L 668.621094 521.757812 C 668.625 528.132812 670.082031 534.027344 673.347656 538.445312 C 674.976562 540.652344 677.070312 542.472656 679.605469 543.714844 C 682.140625 544.96875 685.097656 545.636719 688.433594 545.636719 L 689.589844 545.636719 L 689.671875 545.640625 L 807.273438 545.640625 L 807.367188 545.636719 L 808.53125 545.636719 C 811.863281 545.636719 814.820312 544.96875 817.355469 543.714844 C 821.167969 541.84375 823.953125 538.695312 825.730469 534.871094 C 827.515625 531.042969 828.339844 526.542969 828.339844 521.757812 L 828.339844 245.828125 C 828.332031 239.453125 826.882812 233.5625 823.613281 229.136719 C 821.984375 226.933594 819.890625 225.113281 817.355469 223.867188 C 814.820312 222.621094 811.863281 221.945312 808.53125 221.945312 L 808.53125 225.421875 C 811.402344 225.421875 813.804688 225.988281 815.820312 226.980469 C 818.835938 228.472656 821.058594 230.9375 822.582031 234.183594 C 824.097656 237.421875 824.867188 241.441406 824.863281 245.828125 L 824.863281 521.757812 C 824.867188 527.613281 823.492188 532.789062 820.820312 536.386719 C 819.488281 538.183594 817.835938 539.613281 815.820312 540.601562 C 813.804688 541.597656 811.402344 542.167969 808.53125 542.167969 L 807.277344 542.167969 L 807.175781 542.171875 L 689.785156 542.171875 L 689.695312 542.167969 L 688.433594 542.167969 C 685.558594 542.167969 683.15625 541.597656 681.144531 540.601562 C 678.125 539.117188 675.902344 536.652344 674.382812 533.40625 C 672.867188 530.160156 672.097656 526.144531 672.097656 521.757812 L 672.097656 245.828125 C 672.09375 239.976562 673.46875 234.796875 676.136719 231.203125 C 677.476562 229.398438 679.125 227.976562 681.144531 226.980469 C 683.15625 225.988281 685.558594 225.421875 688.433594 225.421875 L 689.628906 225.417969 L 689.664062 225.417969 L 689.789062 225.414062 L 695.609375 225.414062 L 801.351562 225.417969 L 807.175781 225.414062 L 807.246094 225.417969 L 808.53125 225.417969 L 808.53125 223.6875 "/>
</g>
<path style=" stroke:none;fill-rule:nonzero;fill:rgb(100%,100%,100%);fill-opacity:1;" d="M 826.210938 505.042969 L 826.210938 249.699219 L 670.75 249.699219 L 670.75 505.042969 L 826.210938 505.042969 "/>
<path style=" stroke:none;fill-rule:nonzero;fill:rgb(22.349548%,20.779419%,21.179199%);fill-opacity:1;" d="M 826.210938 505.042969 L 827.949219 505.042969 L 827.949219 247.964844 L 669.011719 247.964844 L 669.011719 506.78125 L 827.949219 506.78125 L 827.949219 505.042969 L 826.210938 505.042969 L 826.210938 503.304688 L 672.488281 503.304688 L 672.488281 251.433594 L 824.472656 251.433594 L 824.472656 505.042969 L 826.210938 505.042969 L 826.210938 503.304688 L 826.210938 505.042969 "/>
<path style=" stroke:none;fill-rule:nonzero;fill:rgb(47.44873%,46.669006%,46.669006%);fill-opacity:1;" d="M 758.308594 523.039062 C 758.308594 517.617188 753.914062 513.214844 748.484375 513.214844 C 743.042969 513.214844 738.648438 517.617188 738.648438 523.039062 C 738.648438 528.457031 743.042969 532.859375 748.484375 532.859375 C 753.914062 532.859375 758.308594 528.457031 758.308594 523.039062 "/>
<path style=" stroke:none;fill-rule:nonzero;fill:rgb(22.349548%,20.779419%,21.179199%);fill-opacity:1;" d="M 758.308594 523.039062 L 760.042969 523.039062 C 760.042969 516.660156 754.871094 511.480469 748.484375 511.480469 C 742.082031 511.480469 736.917969 516.660156 736.910156 523.039062 C 736.917969 529.414062 742.082031 534.59375 748.484375 534.59375 C 754.871094 534.59375 760.042969 529.414062 760.042969 523.039062 L 756.570312 523.039062 C 756.570312 525.277344 755.667969 527.285156 754.203125 528.753906 C 752.730469 530.21875 750.722656 531.125 748.484375 531.125 C 746.238281 531.125 744.230469 530.21875 742.757812 528.753906 C 741.292969 527.285156 740.390625 525.277344 740.386719 523.039062 C 740.390625 520.800781 741.292969 518.789062 742.757812 517.320312 C 744.222656 515.855469 746.238281 514.953125 748.484375 514.953125 C 750.722656 514.953125 752.730469 515.855469 754.203125 517.320312 C 755.667969 518.789062 756.570312 520.800781 756.570312 523.039062 L 758.308594 523.039062 "/>
<path style=" stroke:none;fill-rule:nonzero;fill:rgb(47.44873%,46.669006%,46.669006%);fill-opacity:1;" d="M 773.296875 238.089844 C 773.296875 239.738281 771.96875 241.066406 770.320312 241.066406 L 726.640625 241.066406 C 725 241.066406 723.667969 239.738281 723.667969 238.089844 C 723.667969 236.449219 725 235.117188 726.640625 235.117188 L 770.320312 235.117188 C 771.96875 235.117188 773.296875 236.449219 773.296875 238.089844 "/>
<path style=" stroke:none;fill-rule:nonzero;fill:rgb(22.349548%,20.779419%,21.179199%);fill-opacity:1;" d="M 773.296875 238.089844 L 771.5625 238.089844 C 771.5625 238.777344 771.007812 239.328125 770.320312 239.328125 L 726.640625 239.328125 C 726.300781 239.328125 725.996094 239.195312 725.765625 238.96875 C 725.535156 238.734375 725.402344 238.433594 725.402344 238.089844 C 725.402344 237.75 725.535156 237.449219 725.765625 237.21875 C 725.996094 236.988281 726.300781 236.851562 726.640625 236.851562 L 770.320312 236.851562 C 771.003906 236.851562 771.5625 237.410156 771.5625 238.089844 L 775.035156 238.089844 C 775.035156 235.492188 772.925781 233.382812 770.320312 233.382812 L 726.640625 233.382812 C 724.039062 233.386719 721.933594 235.488281 721.929688 238.089844 C 721.929688 240.699219 724.042969 242.796875 726.640625 242.800781 L 770.320312 242.800781 C 771.621094 242.800781 772.808594 242.273438 773.65625 241.421875 C 774.507812 240.574219 775.035156 239.382812 775.035156 238.089844 L 773.296875 238.089844 "/>
</g>
</svg>
