<?xml version="1.0" standalone="no"?>
<!DOCTYPE svg PUBLIC "-//W3C//DTD SVG 1.1//EN"
"http://www.w3.org/Graphics/SVG/1.1/DTD/svg11.dtd">

<svg width="322" height="271" view_box="0 0 322 271"
xmlns="http://www.w3.org/2000/svg"
xmlns:link="http://www.w3.org/1999/xlink">\n\n<desc>Généré par Mocodo 2.3.7 le Tue, 17 Aug 2021 09:00:16</desc>

<rect id="frame" x="0" y="0" width="322" height="271" fill="#f7f7f7" stroke="none" stroke-width="0"/>

<!-- Association COMMENT -->
<line x1="49" y1="68" x2="163" y2="68" stroke="#de77ae" stroke-width="2"/>
<text x="94" y="85.0" fill="#4d9221" font-family="Verdana" font-size="12">0,N</text>
<line x1="163" y1="203" x2="163" y2="68" stroke="#de77ae" stroke-width="2"/>
<text x="168.0" y="136" fill="#4d9221" font-family="Verdana" font-size="12">0,N</text>
<g id="association-COMMENT">
	<path d="M 191 17 a 14 14 90 0 1 14 14 V 42 h -84 V 31 a 14 14 90 0 1 14 -14" fill="#f1b6da" stroke="#f1b6da" stroke-width="0"/>
	<path d="M 205 42.0 v 63 a 14 14 90 0 1 -14 14 H 135 a 14 14 90 0 1 -14 -14 V 42.0 H 84" fill="#fde0ef" stroke="#fde0ef" stroke-width="0"/>
	<rect x="121" y="17" width="84" height="102" fill="none" rx="14" stroke="#de77ae" stroke-width="2"/>
	<line x1="121" y1="42" x2="205" y2="42" stroke="#de77ae" stroke-width="1"/>
	<text x="131" y="34.7" fill="#000000" font-family="Verdana" font-size="12">COMMENT</text>
	<text x="128" y="59.7" fill="#000000" font-family="Verdana" font-size="12">content</text>
	<text x="128" y="76.8" fill="#000000" font-family="Verdana" font-size="12">rating</text>
	<text x="128" y="93.8" fill="#000000" font-family="Verdana" font-size="12">created_at</text>
	<text x="128" y="110.8" fill="#000000" font-family="Verdana" font-size="12">updated_at</text>
</g>

<!-- Association CONTAINS -->
<line x1="273" y1="68" x2="273" y2="203" stroke="#de77ae" stroke-width="2"/>
<text x="278.0" y="119" fill="#4d9221" font-family="Verdana" font-size="12">1,1</text>
<line x1="163" y1="203" x2="273" y2="203" stroke="#de77ae" stroke-width="2"/>
<text x="206" y="220.0" fill="#4d9221" font-family="Verdana" font-size="12">0,N</text>
<g id="association-CONTAINS">
	<path d="M 299 178 a 14 14 90 0 1 14 14 V 203 h -80 V 192 a 14 14 90 0 1 14 -14" fill="#f1b6da" stroke="#f1b6da" stroke-width="0"/>
	<path d="M 313 203.0 v 11 a 14 14 90 0 1 -14 14 H 247 a 14 14 90 0 1 -14 -14 V 203.0 H 80" fill="#fde0ef" stroke="#fde0ef" stroke-width="0"/>
	<rect x="233" y="178" width="80" height="50" fill="none" rx="14" stroke="#de77ae" stroke-width="2"/>
	<line x1="233" y1="203" x2="313" y2="203" stroke="#de77ae" stroke-width="1"/>
	<text x="240" y="195.7" fill="#000000" font-family="Verdana" font-size="12">CONTAINS</text>
</g>

<!-- Association JOIN -->
<line x1="49" y1="68" x2="49" y2="203" stroke="#de77ae" stroke-width="2"/>
<text x="54.0" y="144" fill="#4d9221" font-family="Verdana" font-size="12">0,N</text>
<line x1="163" y1="203" x2="49" y2="203" stroke="#de77ae" stroke-width="2"/>
<text x="99" y="220.0" fill="#4d9221" font-family="Verdana" font-size="12">1,1</text>
<g id="association-JOIN">
	<path d="M 57 178 a 14 14 90 0 1 14 14 V 203 h -44 V 192 a 14 14 90 0 1 14 -14" fill="#f1b6da" stroke="#f1b6da" stroke-width="0"/>
	<path d="M 71 203.0 v 11 a 14 14 90 0 1 -14 14 H 41 a 14 14 90 0 1 -14 -14 V 203.0 H 44" fill="#fde0ef" stroke="#fde0ef" stroke-width="0"/>
	<rect x="27" y="178" width="44" height="50" fill="none" rx="14" stroke="#de77ae" stroke-width="2"/>
	<line x1="27" y1="203" x2="71" y2="203" stroke="#de77ae" stroke-width="1"/>
	<text x="34" y="195.7" fill="#000000" font-family="Verdana" font-size="12">JOIN</text>
</g>

<!-- Entity ITEM -->
<g id="entity-ITEM">
	<g id="frame-ITEM">
		<rect x="249" y="34" width="48" height="25" fill="#b8e186" stroke="#b8e186" stroke-width="0"/>
		<rect x="249" y="59.0" width="48" height="43" fill="#e6f5d0" stroke="#e6f5d0" stroke-width="0"/>
		<rect x="249" y="34" width="48" height="68" fill="none" stroke="#7fbc41" stroke-width="2"/>
		<line x1="249" y1="59" x2="297" y2="59" stroke="#7fbc41" stroke-width="1"/>
	</g>
	<text x="257" y="51.7" fill="#000000" font-family="Verdana" font-size="12">ITEM</text>
	<text x="254" y="76.8" fill="#000000" font-family="Verdana" font-size="12">name</text>
	<line x1="254" y1="79" x2="289" y2="79" stroke="#000000" stroke-width="1"/>
	<text x="254" y="93.8" fill="#000000" font-family="Verdana" font-size="12">status</text>
</g>

<!-- Entity GAME -->
<g id="entity-GAME">
	<g id="frame-GAME">
		<rect x="125" y="144" width="76" height="25" fill="#b8e186" stroke="#b8e186" stroke-width="0"/>
		<rect x="125" y="169.0" width="76" height="93" fill="#e6f5d0" stroke="#e6f5d0" stroke-width="0"/>
		<rect x="125" y="144" width="76" height="118" fill="none" stroke="#7fbc41" stroke-width="2"/>
		<line x1="125" y1="169" x2="201" y2="169" stroke="#7fbc41" stroke-width="1"/>
	</g>
	<text x="145" y="161.7" fill="#000000" font-family="Verdana" font-size="12">GAME</text>
	<text x="130" y="186.7" fill="#000000" font-family="Verdana" font-size="12">key</text>
	<line x1="130" y1="189" x2="152" y2="189" stroke="#000000" stroke-width="1"/>
	<text x="130" y="203.8" fill="#000000" font-family="Verdana" font-size="12">score</text>
	<text x="130" y="220.8" fill="#000000" font-family="Verdana" font-size="12">status</text>
	<text x="130" y="237.8" fill="#000000" font-family="Verdana" font-size="12">created_at</text>
	<text x="130" y="254.8" fill="#000000" font-family="Verdana" font-size="12">ended_at</text>
</g>

<!-- Entity USER -->
<g id="entity-USER">
	<g id="frame-USER">
		<rect x="9" y="9" width="80" height="25" fill="#b8e186" stroke="#b8e186" stroke-width="0"/>
		<rect x="9" y="34.0" width="80" height="93" fill="#e6f5d0" stroke="#e6f5d0" stroke-width="0"/>
		<rect x="9" y="9" width="80" height="118" fill="none" stroke="#7fbc41" stroke-width="2"/>
		<line x1="9" y1="34" x2="89" y2="34" stroke="#7fbc41" stroke-width="1"/>
	</g>
	<text x="32" y="26.7" fill="#000000" font-family="Verdana" font-size="12">USER</text>
	<text x="14" y="51.7" fill="#000000" font-family="Verdana" font-size="12">email</text>
	<line x1="14" y1="54" x2="48" y2="54" stroke="#000000" stroke-width="1"/>
	<text x="14" y="68.8" fill="#000000" font-family="Verdana" font-size="12">password</text>
	<text x="14" y="85.8" fill="#000000" font-family="Verdana" font-size="12">nickname</text>
	<text x="14" y="102.8" fill="#000000" font-family="Verdana" font-size="12">created_at</text>
	<text x="14" y="119.8" fill="#000000" font-family="Verdana" font-size="12">updated_at</text>
</g>
</svg>