<?xml version="1.0" standalone="no"?>
<!DOCTYPE svg PUBLIC "-//W3C//DTD SVG 1.1//EN"
"http://www.w3.org/Graphics/SVG/1.1/DTD/svg11.dtd">

<svg width="461" height="619" view_box="0 0 461 619"
xmlns="http://www.w3.org/2000/svg"
xmlns:link="http://www.w3.org/1999/xlink">\n\n<desc>Généré par Mocodo 2.3.7 le Fri, 13 Aug 2021 04:57:11</desc>

<rect id="frame" x="0" y="0" width="461" height="619" fill="#f5f5f5" stroke="none" stroke-width="0"/>

<!-- Association FINISH -->
<line x1="277" y1="111" x2="162" y2="111" stroke="#35978f" stroke-width="2"/>
<text x="210" y="128.0" fill="#8c510a" font-family="Verdana" font-size="12">1,N</text>
<line x1="49" y1="111" x2="162" y2="111" stroke="#35978f" stroke-width="2"/>
<text x="94" y="128.0" fill="#8c510a" font-family="Verdana" font-size="12">1,1</text>
<g id="association-FINISH">
	<path d="M 177 86 a 14 14 90 0 1 14 14 V 111 h -58 V 100 a 14 14 90 0 1 14 -14" fill="#80cdc1" stroke="#80cdc1" stroke-width="0"/>
	<path d="M 191 111.0 v 11 a 14 14 90 0 1 -14 14 H 147 a 14 14 90 0 1 -14 -14 V 111.0 H 58" fill="#c7eae5" stroke="#c7eae5" stroke-width="0"/>
	<rect x="133" y="86" width="58" height="50" fill="none" rx="14" stroke="#35978f" stroke-width="2"/>
	<line x1="133" y1="111" x2="191" y2="111" stroke="#35978f" stroke-width="1"/>
	<text x="140" y="103.7" fill="#000000" font-family="Verdana" font-size="12">FINISH</text>
</g>

<!-- Association BELONGS TO -->
<line x1="398" y1="551" x2="398" y2="433" stroke="#35978f" stroke-width="2"/>
<text x="403.0" y="484" fill="#8c510a" font-family="Verdana" font-size="12">1,1</text>
<line x1="277" y1="433" x2="398" y2="433" stroke="#35978f" stroke-width="2"/>
<text x="322" y="450.0" fill="#8c510a" font-family="Verdana" font-size="12">0,1</text>
<g id="association-BELONGS TO">
	<path d="M 432 408 a 14 14 90 0 1 14 14 V 433 h -96 V 422 a 14 14 90 0 1 14 -14" fill="#80cdc1" stroke="#80cdc1" stroke-width="0"/>
	<path d="M 446 433.0 v 11 a 14 14 90 0 1 -14 14 H 364 a 14 14 90 0 1 -14 -14 V 433.0 H 96" fill="#c7eae5" stroke="#c7eae5" stroke-width="0"/>
	<rect x="350" y="408" width="96" height="50" fill="none" rx="14" stroke="#35978f" stroke-width="2"/>
	<line x1="350" y1="433" x2="446" y2="433" stroke="#35978f" stroke-width="1"/>
	<text x="357" y="425.7" fill="#000000" font-family="Verdana" font-size="12">BELONGS TO</text>
</g>

<!-- Association IS LINK TO -->
<line x1="162" y1="551" x2="277" y2="551" stroke="#35978f" stroke-width="2"/>
<text x="207" y="568.0" fill="#8c510a" font-family="Verdana" font-size="12">1,1</text>
<line x1="277" y1="433" x2="277" y2="551" stroke="#35978f" stroke-width="2"/>
<text x="282.0" y="518" fill="#8c510a" font-family="Verdana" font-size="12">0,N</text>
<g id="association-IS LINK TO">
	<path d="M 305 526 a 14 14 90 0 1 14 14 V 551 h -84 V 540 a 14 14 90 0 1 14 -14" fill="#80cdc1" stroke="#80cdc1" stroke-width="0"/>
	<path d="M 319 551.0 v 11 a 14 14 90 0 1 -14 14 H 249 a 14 14 90 0 1 -14 -14 V 551.0 H 84" fill="#c7eae5" stroke="#c7eae5" stroke-width="0"/>
	<rect x="235" y="526" width="84" height="50" fill="none" rx="14" stroke="#35978f" stroke-width="2"/>
	<line x1="235" y1="551" x2="319" y2="551" stroke="#35978f" stroke-width="1"/>
	<text x="242" y="543.7" fill="#000000" font-family="Verdana" font-size="12">IS LINK TO</text>
</g>

<!-- Association MAKE -->
<line x1="49" y1="289" x2="49" y2="433" stroke="#35978f" stroke-width="2"/>
<text x="54.0" y="340" fill="#8c510a" font-family="Verdana" font-size="12">1,N</text>
<line x1="49" y1="551" x2="49" y2="433" stroke="#35978f" stroke-width="2"/>
<text x="54.0" y="484" fill="#8c510a" font-family="Verdana" font-size="12">0,N</text>
<g id="association-MAKE">
	<path d="M 60 408 a 14 14 90 0 1 14 14 V 433 h -50 V 422 a 14 14 90 0 1 14 -14" fill="#80cdc1" stroke="#80cdc1" stroke-width="0"/>
	<path d="M 74 433.0 v 11 a 14 14 90 0 1 -14 14 H 38 a 14 14 90 0 1 -14 -14 V 433.0 H 50" fill="#c7eae5" stroke="#c7eae5" stroke-width="0"/>
	<rect x="24" y="408" width="50" height="50" fill="none" rx="14" stroke="#35978f" stroke-width="2"/>
	<line x1="24" y1="433" x2="74" y2="433" stroke="#35978f" stroke-width="1"/>
	<text x="31" y="425.7" fill="#000000" font-family="Verdana" font-size="12">MAKE</text>
</g>

<!-- Association START -->
<line x1="277" y1="111" x2="398" y2="111" stroke="#35978f" stroke-width="2"/>
<text x="322" y="128.0" fill="#8c510a" font-family="Verdana" font-size="12">1,1</text>
<line x1="398" y1="289" x2="398" y2="111" stroke="#35978f" stroke-width="2"/>
<text x="403.0" y="230" fill="#8c510a" font-family="Verdana" font-size="12">1,1</text>
<g id="association-START">
	<path d="M 412 86 a 14 14 90 0 1 14 14 V 111 h -56 V 100 a 14 14 90 0 1 14 -14" fill="#80cdc1" stroke="#80cdc1" stroke-width="0"/>
	<path d="M 426 111.0 v 11 a 14 14 90 0 1 -14 14 H 384 a 14 14 90 0 1 -14 -14 V 111.0 H 56" fill="#c7eae5" stroke="#c7eae5" stroke-width="0"/>
	<rect x="370" y="86" width="56" height="50" fill="none" rx="14" stroke="#35978f" stroke-width="2"/>
	<line x1="370" y1="111" x2="426" y2="111" stroke="#35978f" stroke-width="1"/>
	<text x="377" y="103.7" fill="#000000" font-family="Verdana" font-size="12">START</text>
</g>

<!-- Association HAVE -->
<line x1="162" y1="289" x2="277" y2="289" stroke="#35978f" stroke-width="2"/>
<text x="207" y="306.0" fill="#8c510a" font-family="Verdana" font-size="12">1,1</text>
<line x1="277" y1="111" x2="277" y2="289" stroke="#35978f" stroke-width="2"/>
<text x="282.0" y="230" fill="#8c510a" font-family="Verdana" font-size="12">N,N</text>
<g id="association-HAVE">
	<path d="M 287 264 a 14 14 90 0 1 14 14 V 289 h -48 V 278 a 14 14 90 0 1 14 -14" fill="#80cdc1" stroke="#80cdc1" stroke-width="0"/>
	<path d="M 301 289.0 v 11 a 14 14 90 0 1 -14 14 H 267 a 14 14 90 0 1 -14 -14 V 289.0 H 48" fill="#c7eae5" stroke="#c7eae5" stroke-width="0"/>
	<rect x="253" y="264" width="48" height="50" fill="none" rx="14" stroke="#35978f" stroke-width="2"/>
	<line x1="253" y1="289" x2="301" y2="289" stroke="#35978f" stroke-width="1"/>
	<text x="260" y="281.7" fill="#000000" font-family="Verdana" font-size="12">HAVE</text>
</g>

<!-- Association HAS -->
<line x1="277" y1="433" x2="162" y2="433" stroke="#35978f" stroke-width="2"/>
<text x="211" y="450.0" fill="#8c510a" font-family="Verdana" font-size="12">1,1</text>
<line x1="162" y1="289" x2="162" y2="433" stroke="#35978f" stroke-width="2"/>
<text x="167.0" y="348" fill="#8c510a" font-family="Verdana" font-size="12">1,N</text>
<g id="association-HAS">
	<path d="M 168 408 a 14 14 90 0 1 14 14 V 433 h -40 V 422 a 14 14 90 0 1 14 -14" fill="#80cdc1" stroke="#80cdc1" stroke-width="0"/>
	<path d="M 182 433.0 v 11 a 14 14 90 0 1 -14 14 H 156 a 14 14 90 0 1 -14 -14 V 433.0 H 40" fill="#c7eae5" stroke="#c7eae5" stroke-width="0"/>
	<rect x="142" y="408" width="40" height="50" fill="none" rx="14" stroke="#35978f" stroke-width="2"/>
	<line x1="142" y1="433" x2="182" y2="433" stroke="#35978f" stroke-width="1"/>
	<text x="149" y="425.7" fill="#000000" font-family="Verdana" font-size="12">HAS</text>
</g>

<!-- Entity END -->
<g id="entity-END">
	<g id="frame-END">
		<rect x="9" y="52" width="80" height="25" fill="#dfc27d" stroke="#dfc27d" stroke-width="0"/>
		<rect x="9" y="77.0" width="80" height="93" fill="#f6e8c3" stroke="#f6e8c3" stroke-width="0"/>
		<rect x="9" y="52" width="80" height="118" fill="none" stroke="#bf812d" stroke-width="2"/>
		<line x1="9" y1="77" x2="89" y2="77" stroke="#bf812d" stroke-width="1"/>
	</g>
	<text x="35" y="69.7" fill="#000000" font-family="Verdana" font-size="12">END</text>
	<text x="14" y="94.7" fill="#000000" font-family="Verdana" font-size="12">image</text>
	<line x1="14" y1="97" x2="52" y2="97" stroke="#000000" stroke-width="1"/>
	<text x="14" y="111.8" fill="#000000" font-family="Verdana" font-size="12">description</text>
	<text x="14" y="128.8" fill="#000000" font-family="Verdana" font-size="12">video</text>
	<text x="14" y="145.8" fill="#000000" font-family="Verdana" font-size="12">created_at</text>
	<text x="14" y="162.8" fill="#000000" font-family="Verdana" font-size="12">updated_at</text>
</g>

<!-- Entity SCENARIO -->
<g id="entity-SCENARIO">
	<g id="frame-SCENARIO">
		<rect x="237" y="9" width="80" height="25" fill="#dfc27d" stroke="#dfc27d" stroke-width="0"/>
		<rect x="237" y="34.0" width="80" height="179" fill="#f6e8c3" stroke="#f6e8c3" stroke-width="0"/>
		<rect x="237" y="9" width="80" height="204" fill="none" stroke="#bf812d" stroke-width="2"/>
		<line x1="237" y1="34" x2="317" y2="34" stroke="#bf812d" stroke-width="1"/>
	</g>
	<text x="244" y="26.7" fill="#000000" font-family="Verdana" font-size="12">SCENARIO</text>
	<text x="242" y="51.7" fill="#000000" font-family="Verdana" font-size="12">name</text>
	<line x1="242" y1="54" x2="277" y2="54" stroke="#000000" stroke-width="1"/>
	<text x="242" y="68.7" fill="#000000" font-family="Verdana" font-size="12">slug</text>
	<text x="242" y="85.7" fill="#000000" font-family="Verdana" font-size="12">duration</text>
	<text x="242" y="102.7" fill="#000000" font-family="Verdana" font-size="12">level</text>
	<text x="242" y="119.8" fill="#000000" font-family="Verdana" font-size="12">rating</text>
	<text x="242" y="136.8" fill="#000000" font-family="Verdana" font-size="12">description</text>
	<text x="242" y="153.8" fill="#000000" font-family="Verdana" font-size="12">image</text>
	<text x="242" y="170.8" fill="#000000" font-family="Verdana" font-size="12">status</text>
	<text x="242" y="187.8" fill="#000000" font-family="Verdana" font-size="12">created_at</text>
	<text x="242" y="204.8" fill="#000000" font-family="Verdana" font-size="12">updated_at</text>
</g>

<!-- Entity INTRODUCTION -->
<g id="entity-INTRODUCTION">
	<g id="frame-INTRODUCTION">
		<rect x="344" y="238" width="108" height="25" fill="#dfc27d" stroke="#dfc27d" stroke-width="0"/>
		<rect x="344" y="263.0" width="108" height="77" fill="#f6e8c3" stroke="#f6e8c3" stroke-width="0"/>
		<rect x="344" y="238" width="108" height="102" fill="none" stroke="#bf812d" stroke-width="2"/>
		<line x1="344" y1="263" x2="452" y2="263" stroke="#bf812d" stroke-width="1"/>
	</g>
	<text x="349" y="255.7" fill="#000000" font-family="Verdana" font-size="12">INTRODUCTION</text>
	<text x="349" y="280.7" fill="#000000" font-family="Verdana" font-size="12">image</text>
	<line x1="349" y1="283" x2="387" y2="283" stroke="#000000" stroke-width="1"/>
	<text x="349" y="297.8" fill="#000000" font-family="Verdana" font-size="12">description</text>
	<text x="349" y="314.8" fill="#000000" font-family="Verdana" font-size="12">created_at</text>
	<text x="349" y="331.8" fill="#000000" font-family="Verdana" font-size="12">updated_at</text>
</g>

<!-- Entity OBJECT -->
<g id="entity-OBJECT">
	<g id="frame-OBJECT">
		<rect x="237" y="365" width="80" height="25" fill="#dfc27d" stroke="#dfc27d" stroke-width="0"/>
		<rect x="237" y="390.0" width="80" height="111" fill="#f6e8c3" stroke="#f6e8c3" stroke-width="0"/>
		<rect x="237" y="365" width="80" height="136" fill="none" stroke="#bf812d" stroke-width="2"/>
		<line x1="237" y1="390" x2="317" y2="390" stroke="#bf812d" stroke-width="1"/>
	</g>
	<text x="253" y="382.7" fill="#000000" font-family="Verdana" font-size="12">OBJECT</text>
	<text x="242" y="407.7" fill="#000000" font-family="Verdana" font-size="12">name</text>
	<line x1="242" y1="410" x2="277" y2="410" stroke="#000000" stroke-width="1"/>
	<text x="242" y="424.7" fill="#000000" font-family="Verdana" font-size="12">image</text>
	<text x="242" y="441.8" fill="#000000" font-family="Verdana" font-size="12">status</text>
	<text x="242" y="458.8" fill="#000000" font-family="Verdana" font-size="12">description</text>
	<text x="242" y="475.8" fill="#000000" font-family="Verdana" font-size="12">created_at</text>
	<text x="242" y="492.8" fill="#000000" font-family="Verdana" font-size="12">updated_at</text>
</g>

<!-- Entity BOT -->
<g id="entity-BOT">
	<g id="frame-BOT">
		<rect x="122" y="509" width="80" height="25" fill="#dfc27d" stroke="#dfc27d" stroke-width="0"/>
		<rect x="122" y="534.0" width="80" height="59" fill="#f6e8c3" stroke="#f6e8c3" stroke-width="0"/>
		<rect x="122" y="509" width="80" height="84" fill="none" stroke="#bf812d" stroke-width="2"/>
		<line x1="122" y1="534" x2="202" y2="534" stroke="#bf812d" stroke-width="1"/>
	</g>
	<text x="149" y="526.7" fill="#000000" font-family="Verdana" font-size="12">BOT</text>
	<text x="127" y="551.8" fill="#000000" font-family="Verdana" font-size="12">message</text>
	<line x1="127" y1="554" x2="181" y2="554" stroke="#000000" stroke-width="1"/>
	<text x="127" y="568.8" fill="#000000" font-family="Verdana" font-size="12">created_at</text>
	<text x="127" y="585.8" fill="#000000" font-family="Verdana" font-size="12">updated_at</text>
</g>

<!-- Entity SCENE -->
<g id="entity-SCENE">
	<g id="frame-SCENE">
		<rect x="122" y="247" width="80" height="25" fill="#dfc27d" stroke="#dfc27d" stroke-width="0"/>
		<rect x="122" y="272.0" width="80" height="59" fill="#f6e8c3" stroke="#f6e8c3" stroke-width="0"/>
		<rect x="122" y="247" width="80" height="84" fill="none" stroke="#bf812d" stroke-width="2"/>
		<line x1="122" y1="272" x2="202" y2="272" stroke="#bf812d" stroke-width="1"/>
	</g>
	<text x="141" y="264.7" fill="#000000" font-family="Verdana" font-size="12">SCENE</text>
	<text x="127" y="289.8" fill="#000000" font-family="Verdana" font-size="12">image</text>
	<line x1="127" y1="292" x2="165" y2="292" stroke="#000000" stroke-width="1"/>
	<text x="127" y="306.8" fill="#000000" font-family="Verdana" font-size="12">created_at</text>
	<text x="127" y="323.8" fill="#000000" font-family="Verdana" font-size="12">updated_at</text>
</g>

<!-- Entity CONTENT -->
<g id="entity-CONTENT">
	<g id="frame-CONTENT">
		<rect x="358" y="492" width="80" height="25" fill="#dfc27d" stroke="#dfc27d" stroke-width="0"/>
		<rect x="358" y="517.0" width="80" height="93" fill="#f6e8c3" stroke="#f6e8c3" stroke-width="0"/>
		<rect x="358" y="492" width="80" height="118" fill="none" stroke="#bf812d" stroke-width="2"/>
		<line x1="358" y1="517" x2="438" y2="517" stroke="#bf812d" stroke-width="1"/>
	</g>
	<text x="368" y="509.7" fill="#000000" font-family="Verdana" font-size="12">CONTENT</text>
	<text x="363" y="534.7" fill="#000000" font-family="Verdana" font-size="12">image</text>
	<line x1="363" y1="537" x2="401" y2="537" stroke="#000000" stroke-width="1"/>
	<text x="363" y="551.8" fill="#000000" font-family="Verdana" font-size="12">description</text>
	<text x="363" y="568.8" fill="#000000" font-family="Verdana" font-size="12">answer</text>
	<text x="363" y="585.8" fill="#000000" font-family="Verdana" font-size="12">created_at</text>
	<text x="363" y="602.8" fill="#000000" font-family="Verdana" font-size="12">updated_at</text>
</g>

<!-- Entity SCORE -->
<g id="entity-SCORE">
	<g id="frame-SCORE">
		<rect x="11" y="255" width="76" height="25" fill="#dfc27d" stroke="#dfc27d" stroke-width="0"/>
		<rect x="11" y="280.0" width="76" height="43" fill="#f6e8c3" stroke="#f6e8c3" stroke-width="0"/>
		<rect x="11" y="255" width="76" height="68" fill="none" stroke="#bf812d" stroke-width="2"/>
		<line x1="11" y1="280" x2="87" y2="280" stroke="#bf812d" stroke-width="1"/>
	</g>
	<text x="27" y="272.7" fill="#000000" font-family="Verdana" font-size="12">SCORE</text>
	<text x="16" y="297.8" fill="#000000" font-family="Verdana" font-size="12">value</text>
	<line x1="16" y1="300" x2="49" y2="300" stroke="#000000" stroke-width="1"/>
	<text x="16" y="314.8" fill="#000000" font-family="Verdana" font-size="12">created_at</text>
</g>

<!-- Entity USER -->
<g id="entity-USER">
	<g id="frame-USER">
		<rect x="9" y="492" width="80" height="25" fill="#dfc27d" stroke="#dfc27d" stroke-width="0"/>
		<rect x="9" y="517.0" width="80" height="93" fill="#f6e8c3" stroke="#f6e8c3" stroke-width="0"/>
		<rect x="9" y="492" width="80" height="118" fill="none" stroke="#bf812d" stroke-width="2"/>
		<line x1="9" y1="517" x2="89" y2="517" stroke="#bf812d" stroke-width="1"/>
	</g>
	<text x="32" y="509.7" fill="#000000" font-family="Verdana" font-size="12">USER</text>
	<text x="14" y="534.7" fill="#000000" font-family="Verdana" font-size="12">email</text>
	<line x1="14" y1="537" x2="48" y2="537" stroke="#000000" stroke-width="1"/>
	<text x="14" y="551.8" fill="#000000" font-family="Verdana" font-size="12">password</text>
	<text x="14" y="568.8" fill="#000000" font-family="Verdana" font-size="12">nickname</text>
	<text x="14" y="585.8" fill="#000000" font-family="Verdana" font-size="12">created_at</text>
	<text x="14" y="602.8" fill="#000000" font-family="Verdana" font-size="12">updated_at</text>
</g>
</svg>