<?xml version="1.0" standalone="no"?>
<!DOCTYPE svg PUBLIC "-//W3C//DTD SVG 1.1//EN"
"http://www.w3.org/Graphics/SVG/1.1/DTD/svg11.dtd">

<svg width="455" height="592" view_box="0 0 455 592"
xmlns="http://www.w3.org/2000/svg"
xmlns:link="http://www.w3.org/1999/xlink">\n\n<desc>Généré par Mocodo 2.3.7 le Mon, 16 Aug 2021 00:52:07</desc>

<rect id="frame" x="0" y="0" width="455" height="592" fill="#f7f7f7" stroke="none" stroke-width="0"/>

<!-- Association FINISH -->
<line x1="293" y1="111" x2="406" y2="111" stroke="#e08214" stroke-width="2"/>
<text x="338" y="128.0" fill="#542788" font-family="Verdana" font-size="12">1,N</text>
<line x1="406" y1="263" x2="406" y2="111" stroke="#e08214" stroke-width="2"/>
<text x="411.0" y="196" fill="#542788" font-family="Verdana" font-size="12">1,1</text>
<g id="association-FINISH">
	<path d="M 421 86 a 14 14 90 0 1 14 14 V 111 h -58 V 100 a 14 14 90 0 1 14 -14" fill="#fdb863" stroke="#fdb863" stroke-width="0"/>
	<path d="M 435 111.0 v 11 a 14 14 90 0 1 -14 14 H 391 a 14 14 90 0 1 -14 -14 V 111.0 H 58" fill="#fee0b6" stroke="#fee0b6" stroke-width="0"/>
	<rect x="377" y="86" width="58" height="50" fill="none" rx="14" stroke="#e08214" stroke-width="2"/>
	<line x1="377" y1="111" x2="435" y2="111" stroke="#e08214" stroke-width="1"/>
	<text x="384" y="103.7" fill="#000000" font-family="Verdana" font-size="12">FINISH</text>
</g>

<!-- Association BELONGS TO -->
<line x1="178" y1="524" x2="57" y2="524" stroke="#e08214" stroke-width="2"/>
<text x="112" y="541.0" fill="#542788" font-family="Verdana" font-size="12">1,1</text>
<line x1="57" y1="406" x2="57" y2="524" stroke="#e08214" stroke-width="2"/>
<text x="62.0" y="491" fill="#542788" font-family="Verdana" font-size="12">0,1</text>
<g id="association-BELONGS TO">
	<path d="M 91 499 a 14 14 90 0 1 14 14 V 524 h -96 V 513 a 14 14 90 0 1 14 -14" fill="#fdb863" stroke="#fdb863" stroke-width="0"/>
	<path d="M 105 524.0 v 11 a 14 14 90 0 1 -14 14 H 23 a 14 14 90 0 1 -14 -14 V 524.0 H 96" fill="#fee0b6" stroke="#fee0b6" stroke-width="0"/>
	<rect x="9" y="499" width="96" height="50" fill="none" rx="14" stroke="#e08214" stroke-width="2"/>
	<line x1="9" y1="524" x2="105" y2="524" stroke="#e08214" stroke-width="1"/>
	<text x="16" y="516.7" fill="#000000" font-family="Verdana" font-size="12">BELONGS TO</text>
</g>

<!-- Association IS LINK TO -->
<line x1="178" y1="263" x2="178" y2="406" stroke="#e08214" stroke-width="2"/>
<text x="183.0" y="322" fill="#542788" font-family="Verdana" font-size="12">1,1</text>
<line x1="57" y1="406" x2="178" y2="406" stroke="#e08214" stroke-width="2"/>
<text x="102" y="423.0" fill="#542788" font-family="Verdana" font-size="12">0,N</text>
<g id="association-IS LINK TO">
	<path d="M 206 381 a 14 14 90 0 1 14 14 V 406 h -84 V 395 a 14 14 90 0 1 14 -14" fill="#fdb863" stroke="#fdb863" stroke-width="0"/>
	<path d="M 220 406.0 v 11 a 14 14 90 0 1 -14 14 H 150 a 14 14 90 0 1 -14 -14 V 406.0 H 84" fill="#fee0b6" stroke="#fee0b6" stroke-width="0"/>
	<rect x="136" y="381" width="84" height="50" fill="none" rx="14" stroke="#e08214" stroke-width="2"/>
	<line x1="136" y1="406" x2="220" y2="406" stroke="#e08214" stroke-width="1"/>
	<text x="143" y="398.7" fill="#000000" font-family="Verdana" font-size="12">IS LINK TO</text>
</g>

<!-- Association MAKE -->
<line x1="293" y1="524" x2="406" y2="524" stroke="#e08214" stroke-width="2"/>
<text x="336" y="541.0" fill="#542788" font-family="Verdana" font-size="12">1,N</text>
<line x1="406" y1="406" x2="406" y2="524" stroke="#e08214" stroke-width="2"/>
<text x="411.0" y="482" fill="#542788" font-family="Verdana" font-size="12">0,N</text>
<g id="association-MAKE">
	<path d="M 417 499 a 14 14 90 0 1 14 14 V 524 h -50 V 513 a 14 14 90 0 1 14 -14" fill="#fdb863" stroke="#fdb863" stroke-width="0"/>
	<path d="M 431 524.0 v 11 a 14 14 90 0 1 -14 14 H 395 a 14 14 90 0 1 -14 -14 V 524.0 H 50" fill="#fee0b6" stroke="#fee0b6" stroke-width="0"/>
	<rect x="381" y="499" width="50" height="50" fill="none" rx="14" stroke="#e08214" stroke-width="2"/>
	<line x1="381" y1="524" x2="431" y2="524" stroke="#e08214" stroke-width="1"/>
	<text x="388" y="516.7" fill="#000000" font-family="Verdana" font-size="12">MAKE</text>
</g>

<!-- Association START -->
<line x1="293" y1="111" x2="293" y2="263" stroke="#e08214" stroke-width="2"/>
<text x="298.0" y="230" fill="#542788" font-family="Verdana" font-size="12">1,N</text>
<line x1="293" y1="406" x2="293" y2="263" stroke="#e08214" stroke-width="2"/>
<text x="298.0" y="347" fill="#542788" font-family="Verdana" font-size="12">1,1</text>
<g id="association-START">
	<path d="M 307 238 a 14 14 90 0 1 14 14 V 263 h -56 V 252 a 14 14 90 0 1 14 -14" fill="#fdb863" stroke="#fdb863" stroke-width="0"/>
	<path d="M 321 263.0 v 11 a 14 14 90 0 1 -14 14 H 279 a 14 14 90 0 1 -14 -14 V 263.0 H 56" fill="#fee0b6" stroke="#fee0b6" stroke-width="0"/>
	<rect x="265" y="238" width="56" height="50" fill="none" rx="14" stroke="#e08214" stroke-width="2"/>
	<line x1="265" y1="263" x2="321" y2="263" stroke="#e08214" stroke-width="1"/>
	<text x="272" y="255.7" fill="#000000" font-family="Verdana" font-size="12">START</text>
</g>

<!-- Association HAVE -->
<line x1="57" y1="111" x2="178" y2="111" stroke="#e08214" stroke-width="2"/>
<text x="102" y="128.0" fill="#542788" font-family="Verdana" font-size="12">1,1</text>
<line x1="293" y1="111" x2="178" y2="111" stroke="#e08214" stroke-width="2"/>
<text x="225" y="128.0" fill="#542788" font-family="Verdana" font-size="12">N,N</text>
<g id="association-HAVE">
	<path d="M 188 86 a 14 14 90 0 1 14 14 V 111 h -48 V 100 a 14 14 90 0 1 14 -14" fill="#fdb863" stroke="#fdb863" stroke-width="0"/>
	<path d="M 202 111.0 v 11 a 14 14 90 0 1 -14 14 H 168 a 14 14 90 0 1 -14 -14 V 111.0 H 48" fill="#fee0b6" stroke="#fee0b6" stroke-width="0"/>
	<rect x="154" y="86" width="48" height="50" fill="none" rx="14" stroke="#e08214" stroke-width="2"/>
	<line x1="154" y1="111" x2="202" y2="111" stroke="#e08214" stroke-width="1"/>
	<text x="161" y="103.7" fill="#000000" font-family="Verdana" font-size="12">HAVE</text>
</g>

<!-- Association HAS -->
<line x1="57" y1="406" x2="57" y2="263" stroke="#e08214" stroke-width="2"/>
<text x="62.0" y="330" fill="#542788" font-family="Verdana" font-size="12">1,1</text>
<line x1="57" y1="111" x2="57" y2="263" stroke="#e08214" stroke-width="2"/>
<text x="62.0" y="170" fill="#542788" font-family="Verdana" font-size="12">1,N</text>
<g id="association-HAS">
	<path d="M 63 238 a 14 14 90 0 1 14 14 V 263 h -40 V 252 a 14 14 90 0 1 14 -14" fill="#fdb863" stroke="#fdb863" stroke-width="0"/>
	<path d="M 77 263.0 v 11 a 14 14 90 0 1 -14 14 H 51 a 14 14 90 0 1 -14 -14 V 263.0 H 40" fill="#fee0b6" stroke="#fee0b6" stroke-width="0"/>
	<rect x="37" y="238" width="40" height="50" fill="none" rx="14" stroke="#e08214" stroke-width="2"/>
	<line x1="37" y1="263" x2="77" y2="263" stroke="#e08214" stroke-width="1"/>
	<text x="44" y="255.7" fill="#000000" font-family="Verdana" font-size="12">HAS</text>
</g>

<!-- Entity END -->
<g id="entity-END">
	<g id="frame-END">
		<rect x="366" y="204" width="80" height="25" fill="#b2abd2" stroke="#b2abd2" stroke-width="0"/>
		<rect x="366" y="229.0" width="80" height="93" fill="#d8daeb" stroke="#d8daeb" stroke-width="0"/>
		<rect x="366" y="204" width="80" height="118" fill="none" stroke="#8073ac" stroke-width="2"/>
		<line x1="366" y1="229" x2="446" y2="229" stroke="#8073ac" stroke-width="1"/>
	</g>
	<text x="392" y="221.7" fill="#000000" font-family="Verdana" font-size="12">END</text>
	<text x="371" y="246.7" fill="#000000" font-family="Verdana" font-size="12">image</text>
	<line x1="371" y1="249" x2="409" y2="249" stroke="#000000" stroke-width="1"/>
	<text x="371" y="263.8" fill="#000000" font-family="Verdana" font-size="12">description</text>
	<text x="371" y="280.8" fill="#000000" font-family="Verdana" font-size="12">video</text>
	<text x="371" y="297.8" fill="#000000" font-family="Verdana" font-size="12">created_at</text>
	<text x="371" y="314.8" fill="#000000" font-family="Verdana" font-size="12">updated_at</text>
</g>

<!-- Entity SCENARIO -->
<g id="entity-SCENARIO">
	<g id="frame-SCENARIO">
		<rect x="253" y="9" width="80" height="25" fill="#b2abd2" stroke="#b2abd2" stroke-width="0"/>
		<rect x="253" y="34.0" width="80" height="179" fill="#d8daeb" stroke="#d8daeb" stroke-width="0"/>
		<rect x="253" y="9" width="80" height="204" fill="none" stroke="#8073ac" stroke-width="2"/>
		<line x1="253" y1="34" x2="333" y2="34" stroke="#8073ac" stroke-width="1"/>
	</g>
	<text x="260" y="26.7" fill="#000000" font-family="Verdana" font-size="12">SCENARIO</text>
	<text x="258" y="51.7" fill="#000000" font-family="Verdana" font-size="12">name</text>
	<line x1="258" y1="54" x2="293" y2="54" stroke="#000000" stroke-width="1"/>
	<text x="258" y="68.7" fill="#000000" font-family="Verdana" font-size="12">slug</text>
	<text x="258" y="85.7" fill="#000000" font-family="Verdana" font-size="12">duration</text>
	<text x="258" y="102.7" fill="#000000" font-family="Verdana" font-size="12">level</text>
	<text x="258" y="119.8" fill="#000000" font-family="Verdana" font-size="12">rating</text>
	<text x="258" y="136.8" fill="#000000" font-family="Verdana" font-size="12">description</text>
	<text x="258" y="153.8" fill="#000000" font-family="Verdana" font-size="12">image</text>
	<text x="258" y="170.8" fill="#000000" font-family="Verdana" font-size="12">status</text>
	<text x="258" y="187.8" fill="#000000" font-family="Verdana" font-size="12">created_at</text>
	<text x="258" y="204.8" fill="#000000" font-family="Verdana" font-size="12">updated_at</text>
</g>

<!-- Entity OBJECT -->
<g id="entity-OBJECT">
	<g id="frame-OBJECT">
		<rect x="17" y="338" width="80" height="25" fill="#b2abd2" stroke="#b2abd2" stroke-width="0"/>
		<rect x="17" y="363.0" width="80" height="111" fill="#d8daeb" stroke="#d8daeb" stroke-width="0"/>
		<rect x="17" y="338" width="80" height="136" fill="none" stroke="#8073ac" stroke-width="2"/>
		<line x1="17" y1="363" x2="97" y2="363" stroke="#8073ac" stroke-width="1"/>
	</g>
	<text x="33" y="355.7" fill="#000000" font-family="Verdana" font-size="12">OBJECT</text>
	<text x="22" y="380.7" fill="#000000" font-family="Verdana" font-size="12">name</text>
	<line x1="22" y1="383" x2="57" y2="383" stroke="#000000" stroke-width="1"/>
	<text x="22" y="397.7" fill="#000000" font-family="Verdana" font-size="12">image</text>
	<text x="22" y="414.8" fill="#000000" font-family="Verdana" font-size="12">status</text>
	<text x="22" y="431.8" fill="#000000" font-family="Verdana" font-size="12">description</text>
	<text x="22" y="448.8" fill="#000000" font-family="Verdana" font-size="12">created_at</text>
	<text x="22" y="465.8" fill="#000000" font-family="Verdana" font-size="12">updated_at</text>
</g>

<!-- Entity BOT -->
<g id="entity-BOT">
	<g id="frame-BOT">
		<rect x="138" y="221" width="80" height="25" fill="#b2abd2" stroke="#b2abd2" stroke-width="0"/>
		<rect x="138" y="246.0" width="80" height="59" fill="#d8daeb" stroke="#d8daeb" stroke-width="0"/>
		<rect x="138" y="221" width="80" height="84" fill="none" stroke="#8073ac" stroke-width="2"/>
		<line x1="138" y1="246" x2="218" y2="246" stroke="#8073ac" stroke-width="1"/>
	</g>
	<text x="165" y="238.7" fill="#000000" font-family="Verdana" font-size="12">BOT</text>
	<text x="143" y="263.8" fill="#000000" font-family="Verdana" font-size="12">message</text>
	<line x1="143" y1="266" x2="197" y2="266" stroke="#000000" stroke-width="1"/>
	<text x="143" y="280.8" fill="#000000" font-family="Verdana" font-size="12">created_at</text>
	<text x="143" y="297.8" fill="#000000" font-family="Verdana" font-size="12">updated_at</text>
</g>

<!-- Entity SCENE -->
<g id="entity-SCENE">
	<g id="frame-SCENE">
		<rect x="17" y="69" width="80" height="25" fill="#b2abd2" stroke="#b2abd2" stroke-width="0"/>
		<rect x="17" y="94.0" width="80" height="59" fill="#d8daeb" stroke="#d8daeb" stroke-width="0"/>
		<rect x="17" y="69" width="80" height="84" fill="none" stroke="#8073ac" stroke-width="2"/>
		<line x1="17" y1="94" x2="97" y2="94" stroke="#8073ac" stroke-width="1"/>
	</g>
	<text x="36" y="86.7" fill="#000000" font-family="Verdana" font-size="12">SCENE</text>
	<text x="22" y="111.8" fill="#000000" font-family="Verdana" font-size="12">image</text>
	<line x1="22" y1="114" x2="60" y2="114" stroke="#000000" stroke-width="1"/>
	<text x="22" y="128.8" fill="#000000" font-family="Verdana" font-size="12">created_at</text>
	<text x="22" y="145.8" fill="#000000" font-family="Verdana" font-size="12">updated_at</text>
</g>

<!-- Entity CONTENT -->
<g id="entity-CONTENT">
	<g id="frame-CONTENT">
		<rect x="138" y="465" width="80" height="25" fill="#b2abd2" stroke="#b2abd2" stroke-width="0"/>
		<rect x="138" y="490.0" width="80" height="93" fill="#d8daeb" stroke="#d8daeb" stroke-width="0"/>
		<rect x="138" y="465" width="80" height="118" fill="none" stroke="#8073ac" stroke-width="2"/>
		<line x1="138" y1="490" x2="218" y2="490" stroke="#8073ac" stroke-width="1"/>
	</g>
	<text x="148" y="482.7" fill="#000000" font-family="Verdana" font-size="12">CONTENT</text>
	<text x="143" y="507.7" fill="#000000" font-family="Verdana" font-size="12">image</text>
	<line x1="143" y1="510" x2="181" y2="510" stroke="#000000" stroke-width="1"/>
	<text x="143" y="524.8" fill="#000000" font-family="Verdana" font-size="12">description</text>
	<text x="143" y="541.8" fill="#000000" font-family="Verdana" font-size="12">answer</text>
	<text x="143" y="558.8" fill="#000000" font-family="Verdana" font-size="12">created_at</text>
	<text x="143" y="575.8" fill="#000000" font-family="Verdana" font-size="12">updated_at</text>
</g>

<!-- Entity SYNOPSIS -->
<g id="entity-SYNOPSIS">
	<g id="frame-SYNOPSIS">
		<rect x="253" y="355" width="80" height="25" fill="#b2abd2" stroke="#b2abd2" stroke-width="0"/>
		<rect x="253" y="380.0" width="80" height="77" fill="#d8daeb" stroke="#d8daeb" stroke-width="0"/>
		<rect x="253" y="355" width="80" height="102" fill="none" stroke="#8073ac" stroke-width="2"/>
		<line x1="253" y1="380" x2="333" y2="380" stroke="#8073ac" stroke-width="1"/>
	</g>
	<text x="261" y="372.7" fill="#000000" font-family="Verdana" font-size="12">SYNOPSIS</text>
	<text x="258" y="397.7" fill="#000000" font-family="Verdana" font-size="12">image</text>
	<line x1="258" y1="400" x2="296" y2="400" stroke="#000000" stroke-width="1"/>
	<text x="258" y="414.8" fill="#000000" font-family="Verdana" font-size="12">description</text>
	<text x="258" y="431.8" fill="#000000" font-family="Verdana" font-size="12">created_at</text>
	<text x="258" y="448.8" fill="#000000" font-family="Verdana" font-size="12">updated_at</text>
</g>

<!-- Entity SCORE -->
<g id="entity-SCORE">
	<g id="frame-SCORE">
		<rect x="255" y="490" width="76" height="25" fill="#b2abd2" stroke="#b2abd2" stroke-width="0"/>
		<rect x="255" y="515.0" width="76" height="43" fill="#d8daeb" stroke="#d8daeb" stroke-width="0"/>
		<rect x="255" y="490" width="76" height="68" fill="none" stroke="#8073ac" stroke-width="2"/>
		<line x1="255" y1="515" x2="331" y2="515" stroke="#8073ac" stroke-width="1"/>
	</g>
	<text x="271" y="507.7" fill="#000000" font-family="Verdana" font-size="12">SCORE</text>
	<text x="260" y="532.8" fill="#000000" font-family="Verdana" font-size="12">value</text>
	<line x1="260" y1="535" x2="293" y2="535" stroke="#000000" stroke-width="1"/>
	<text x="260" y="549.8" fill="#000000" font-family="Verdana" font-size="12">created_at</text>
</g>

<!-- Entity USER -->
<g id="entity-USER">
	<g id="frame-USER">
		<rect x="366" y="347" width="80" height="25" fill="#b2abd2" stroke="#b2abd2" stroke-width="0"/>
		<rect x="366" y="372.0" width="80" height="93" fill="#d8daeb" stroke="#d8daeb" stroke-width="0"/>
		<rect x="366" y="347" width="80" height="118" fill="none" stroke="#8073ac" stroke-width="2"/>
		<line x1="366" y1="372" x2="446" y2="372" stroke="#8073ac" stroke-width="1"/>
	</g>
	<text x="389" y="364.7" fill="#000000" font-family="Verdana" font-size="12">USER</text>
	<text x="371" y="389.7" fill="#000000" font-family="Verdana" font-size="12">email</text>
	<line x1="371" y1="392" x2="405" y2="392" stroke="#000000" stroke-width="1"/>
	<text x="371" y="406.8" fill="#000000" font-family="Verdana" font-size="12">password</text>
	<text x="371" y="423.8" fill="#000000" font-family="Verdana" font-size="12">nickname</text>
	<text x="371" y="440.8" fill="#000000" font-family="Verdana" font-size="12">created_at</text>
	<text x="371" y="457.8" fill="#000000" font-family="Verdana" font-size="12">updated_at</text>
</g>
</svg>